<svg width="1111" height="913" xmlns="http://www.w3.org/2000/svg" xmlns:xlink="http://www.w3.org/1999/xlink" xml:space="preserve" overflow="hidden"><g transform="translate(-2672 -682)"><path d="M2897 982.75 3056.75 823 3537 823 3537 1302.25 3377.25 1462 2897 1462ZM2897 982.75 3377.25 982.75 3537 823M3377.25 982.75 3377.25 1462" stroke="#FFFFFF" stroke-width="27.5" stroke-miterlimit="8" fill="none" fill-rule="evenodd"/><path d="M2837 989.5C2837 949.459 2869.01 917 2908.5 917 2947.99 917 2980 949.459 2980 989.5 2980 1029.54 2947.99 1062 2908.5 1062 2869.01 1062 2837 1029.54 2837 989.5Z" fill="#FFFFFF" fill-rule="evenodd"/><path d="M2837 1462C2837 1422.24 2869.01 1390 2908.5 1390 2947.99 1390 2980 1422.24 2980 1462 2980 1501.76 2947.99 1534 2908.5 1534 2869.01 1534 2837 1501.76 2837 1462Z" fill="#FFFFFF" fill-rule="evenodd"/><path d="M3307 1462C3307 1422.24 3338.79 1390 3378 1390 3417.21 1390 3449 1422.24 3449 1462 3449 1501.76 3417.21 1534 3378 1534 3338.79 1534 3307 1501.76 3307 1462Z" fill="#FFFFFF" fill-rule="evenodd"/><path d="M3307 989.5C3307 949.459 3338.79 917 3378 917 3417.21 917 3449 949.459 3449 989.5 3449 1029.54 3417.21 1062 3378 1062 3338.79 1062 3307 1029.54 3307 989.5Z" fill="#FFFFFF" fill-rule="evenodd"/><path d="M2980 798C2980 758.235 3011.79 726 3051 726 3090.21 726 3122 758.235 3122 798 3122 837.765 3090.21 870 3051 870 3011.79 870 2980 837.765 2980 798Z" fill="#FFFFFF" fill-rule="evenodd"/><path d="M3450 798C3450 758.235 3481.79 726 3521 726 3560.21 726 3592 758.235 3592 798 3592 837.765 3560.21 870 3521 870 3481.79 870 3450 837.765 3450 798Z" fill="#FFFFFF" fill-rule="evenodd"/><path d="M3493 1288C3493 1248.24 3525.01 1216 3564.5 1216 3603.99 1216 3636 1248.24 3636 1288 3636 1327.76 3603.99 1360 3564.5 1360 3525.01 1360 3493 1327.76 3493 1288Z" fill="#FFFFFF" fill-rule="evenodd"/><path d="M2833.49 1581C2792.76 1581 2759.75 1547.98 2759.75 1507.25L2759.75 1212.25C2759.75 1171.52 2726.73 1138.5 2686 1138.5 2726.73 1138.5 2759.75 1105.48 2759.75 1064.75L2759.75 769.747C2759.75 729.018 2792.76 696 2833.49 696M3621.51 696C3662.24 696 3695.25 729.018 3695.25 769.747L3695.25 1064.75C3695.25 1105.48 3728.27 1138.5 3769 1138.5 3728.27 1138.5 3695.25 1171.52 3695.25 1212.25L3695.25 1507.25C3695.25 1547.98 3662.24 1581 3621.51 1581" stroke="#FFFFFF" stroke-width="27.5" stroke-miterlimit="8" fill="none" fill-rule="evenodd"/></g></svg>