<svg width="1111" height="913" xmlns="http://www.w3.org/2000/svg" xmlns:xlink="http://www.w3.org/1999/xlink" xml:space="preserve" overflow="hidden"><g transform="translate(-395 -682)"><path d="M621 982.75 780.75 823 1260 823 1260 1302.25 1100.25 1462 621 1462ZM621 982.75 1100.25 982.75 1260 823M1100.25 982.75 1100.25 1462" stroke="#000000" stroke-width="27.5" stroke-miterlimit="8" fill="none" fill-rule="evenodd"/><path d="M561 989.5C561 949.459 592.788 917 632 917 671.212 917 703 949.459 703 989.5 703 1029.54 671.212 1062 632 1062 592.788 1062 561 1029.54 561 989.5Z" fill-rule="evenodd"/><path d="M561 1462C561 1422.24 592.788 1390 632 1390 671.212 1390 703 1422.24 703 1462 703 1501.76 671.212 1534 632 1534 592.788 1534 561 1501.76 561 1462Z" fill-rule="evenodd"/><path d="M1030 1462C1030 1422.24 1062.01 1390 1101.5 1390 1140.99 1390 1173 1422.24 1173 1462 1173 1501.76 1140.99 1534 1101.5 1534 1062.01 1534 1030 1501.76 1030 1462Z" fill-rule="evenodd"/><path d="M1030 989.5C1030 949.459 1062.01 917 1101.5 917 1140.99 917 1173 949.459 1173 989.5 1173 1029.54 1140.99 1062 1101.5 1062 1062.01 1062 1030 1029.54 1030 989.5Z" fill-rule="evenodd"/><path d="M703 798C703 758.235 735.012 726 774.5 726 813.988 726 846 758.235 846 798 846 837.765 813.988 870 774.5 870 735.012 870 703 837.765 703 798Z" fill-rule="evenodd"/><path d="M1173 798C1173 758.235 1205.01 726 1244.5 726 1283.99 726 1316 758.235 1316 798 1316 837.765 1283.99 870 1244.5 870 1205.01 870 1173 837.765 1173 798Z" fill-rule="evenodd"/><path d="M1216 1288C1216 1248.24 1248.01 1216 1287.5 1216 1326.99 1216 1359 1248.24 1359 1288 1359 1327.76 1326.99 1360 1287.5 1360 1248.01 1360 1216 1327.76 1216 1288Z" fill-rule="evenodd"/><path d="M556.494 1581C515.764 1581 482.747 1547.98 482.747 1507.25L482.747 1212.25C482.747 1171.52 449.729 1138.5 409 1138.5 449.729 1138.5 482.747 1105.48 482.747 1064.75L482.747 769.747C482.747 729.018 515.764 696 556.494 696M1344.51 696C1385.24 696 1418.25 729.018 1418.25 769.747L1418.25 1064.75C1418.25 1105.48 1451.27 1138.5 1492 1138.5 1451.27 1138.5 1418.25 1171.52 1418.25 1212.25L1418.25 1507.25C1418.25 1547.98 1385.24 1581 1344.51 1581" stroke="#000000" stroke-width="27.5" stroke-miterlimit="8" fill="none" fill-rule="evenodd"/></g></svg>